<svg xmlns="http://www.w3.org/2000/svg" xmlns:xlink="http://www.w3.org/1999/xlink" width="604.892" height="280.566" viewBox="0 0 604.892 280.566"><defs><style>.a{fill:#2c2d8b;}.b{fill:url(#a);}.c{fill:#0670ba;}.d{fill:url(#b);}.e{fill:url(#c);}.f{fill:url(#d);}.g{fill:url(#e);}</style><linearGradient id="a" y1="0.662" x2="0.866" y2="0.54" gradientUnits="objectBoundingBox"><stop offset="0" stop-color="#ffd400"/><stop offset="0.704" stop-color="#f89f15"/><stop offset="1" stop-color="#f58220"/></linearGradient><linearGradient id="b" x2="0.955" y2="0.744" gradientUnits="objectBoundingBox"><stop offset="0" stop-color="#15bcf2"/><stop offset="0.798" stop-color="#2559ab"/><stop offset="1" stop-color="#2c2d8b"/></linearGradient><linearGradient id="c" y1="0.377" x2="1" y2="0.5" gradientUnits="objectBoundingBox"><stop offset="0" stop-color="#fff"/><stop offset="0.567" stop-color="#378cc8"/><stop offset="1" stop-color="#0670ba"/></linearGradient><linearGradient id="d" x1="1" y1="0.714" x2="0.046" y2="0.5" gradientUnits="objectBoundingBox"><stop offset="0" stop-color="#ffd400"/><stop offset="0.704" stop-color="#faa911"/><stop offset="1" stop-color="#f58220"/></linearGradient><linearGradient id="e" x1="0.881" y1="0.533" x2="0" y2="0.539" gradientUnits="objectBoundingBox"><stop offset="0" stop-color="#15bcf2"/><stop offset="1" stop-color="#2c2d8b"/></linearGradient></defs><g transform="translate(-6 0)"><path class="a" d="M0,56.764,75.227,0,149.9,38.754Z" transform="translate(6 134.908)"/><path class="b" d="M0,76.31,100.906,0,75.815,116.045Z" transform="translate(80.951 59.718)"/><path class="c" d="M25.107,0,206.17,109.037,68.539,151.34,0,114.924Z" transform="translate(153.417 59.52)"/><path class="d" d="M197.189,51.273l-15.541,57.04L0,0Z" transform="translate(175.971 59.492)"/><path class="e" d="M0,41.688,138.667,0V111.509Z" transform="translate(218.211 169.057)"/><path class="a" d="M170.441,0,0,16.81v111.14Z" transform="translate(356.816 152.393)"/><path class="f" d="M0,58.7,17.227,0,171.8,41.3Z" transform="translate(356.428 110.605)"/><path class="g" d="M202.87,0,156.584,87.733,0,47.169Z" transform="translate(373.068 64.492)"/><path class="a" d="M157.96,0,123.589,63.735,0,93.54Z" transform="translate(452.933 0)"/></g></svg>